<svg width="909" height="200" viewBox="0 0 909 200" fill="none" xmlns="http://www.w3.org/2000/svg">
<path d="M418.264 1.12C397.54 2.701 379.806 17.472 374.569 37.553C372.519 45.457 372.469 54.25 374.47 62.08C379.632 82.532 397.614 97.525 418.634 98.909C430.564 99.699 442.149 96.241 451.708 89.004C454.302 87.053 459.019 82.335 460.971 79.741C475.569 60.425 474.087 33.625 457.464 16.236C447.213 5.54201 432.911 0.00900131 418.264 1.12ZM425.773 13.421C429.701 15.249 432.961 19.893 435.357 27.056C436.913 31.724 436.913 33.379 435.357 34.293C434.418 34.836 433.406 34.812 432.442 34.219C431.8 33.848 431.553 33.453 431.256 32.317C429.873 27.303 428.391 23.82 426.513 21.177C423.821 17.398 421.351 17.003 418.535 19.893C415.102 23.376 412.409 31.132 411.224 40.938C410.681 45.409 410.681 54.696 411.224 59.117C411.767 63.662 411.743 63.958 410.903 64.897C410.285 65.589 410.014 65.712 409.05 65.712C408.111 65.712 407.79 65.588 407.148 64.946C406.506 64.304 406.358 63.884 406.111 62.204L405.815 60.203L403.715 58.35C397.614 52.99 392.427 46.716 389.809 41.504C384.202 30.29 389.093 22.065 401.023 22.682C404.185 22.855 405.197 23.225 405.765 24.411C406.308 25.523 406.284 26.017 405.691 26.98C404.95 28.215 404.456 28.363 401.64 28.166C398.627 27.968 396.379 28.314 394.872 29.204C391.71 31.032 392.353 35.824 396.626 42.345C398.232 44.79 401.69 48.965 403.888 51.089L405.123 52.275L405.296 47.631C405.667 37.529 407.445 28.711 410.335 22.535C414.263 14.162 420.067 10.729 425.773 13.421ZM447.88 23.005C450.449 23.524 452.252 24.438 453.734 25.92C455.043 27.229 455.908 28.785 456.328 30.564C457.34 34.96 455.117 41.234 450.251 47.73C449.189 49.138 448.522 50.225 448.645 50.398C453.165 56.351 454.252 58.179 455.635 62.155C456.327 64.181 456.425 64.823 456.425 67.095C456.45 69.614 456.425 69.738 455.511 71.566C452.695 77.296 445.878 78.803 435.034 76.086C434.417 75.913 434.318 76.012 433.626 77.568C431.724 81.767 428.661 85.275 425.697 86.683C424.289 87.35 423.82 87.449 421.992 87.449C420.139 87.449 419.695 87.35 418.237 86.659C417.323 86.239 415.989 85.35 415.298 84.683C413.618 83.127 411.865 80.632 411.692 79.595C411.396 77.668 413.223 76.112 415.125 76.68C415.866 76.902 416.335 77.347 417.422 78.804C419.126 81.101 420.411 82.015 421.992 82.015C427.105 82.015 432.391 69.245 432.984 55.437C433.182 51.04 433.305 50.373 433.997 49.534C435.183 48.151 437.48 48.373 438.319 49.979C439.035 51.288 438.344 60.279 437.059 66.553C436.688 68.406 436.293 70.085 436.219 70.283C435.873 71.148 443.234 72.284 446.05 71.814C449.632 71.221 451.039 69.887 450.99 67.072C450.941 62.379 446.84 55.883 439.183 48.374C433.403 42.693 427.179 38.173 419.645 34.171C417.422 32.985 416.582 32.417 416.236 31.8C415.347 30.269 416.335 28.243 418.163 27.897C418.978 27.749 419.398 27.897 421.448 28.934C428.932 32.763 436.812 38.32 442.641 43.903C443.678 44.891 444.592 45.731 444.691 45.78C445.284 46.002 449.409 39.16 450.421 36.295C451.162 34.171 451.187 31.651 450.446 30.466C449.334 28.688 446.617 27.922 442.443 28.194L439.775 28.342L438.91 27.478C437.156 25.724 438.07 23.303 440.639 22.884C442.693 22.536 445.854 22.585 447.88 23.005ZM424.933 43.926C426.884 44.889 428.416 47.359 428.416 49.533C428.416 52.818 425.279 55.955 421.994 55.955C419.376 55.955 416.659 53.905 415.942 51.41C415.127 48.594 416.263 45.655 418.758 44.173C419.474 43.753 420.364 43.333 420.734 43.284C421.895 43.086 423.822 43.383 424.933 43.926ZM396.058 54.152C396.552 54.597 396.873 55.165 396.972 55.757C397.096 56.572 396.923 56.992 395.688 59.141C392.279 65.143 391.983 69.17 394.873 70.849C399.739 73.714 411.373 70.824 423.501 63.71C425.452 62.574 426.885 61.882 427.33 61.882C428.491 61.882 429.578 62.722 429.924 63.833C430.566 65.957 429.01 67.266 421.081 71.243C412.782 75.393 406.335 77.27 400.135 77.295C395.244 77.32 392.577 76.455 390.107 73.985C387.637 71.54 386.896 68.106 387.884 63.784C388.551 60.943 390.922 55.954 392.305 54.472C393.12 53.632 393.417 53.484 394.281 53.484C395.046 53.485 395.49 53.658 396.058 54.152Z" fill="white"/>
<path d="M111.903 101V25.47C111.903 22.1767 112.727 19.1867 114.373 16.5C116.02 13.7267 118.187 11.5167 120.873 9.87C123.647 8.22333 126.68 7.4 129.973 7.4H187.303C190.597 7.4 193.63 8.22333 196.403 9.87C199.177 11.5167 201.387 13.7267 203.033 16.5C204.68 19.1867 205.503 22.1767 205.503 25.47V101H188.213V69.54H129.063V101H111.903ZM129.063 52.38H188.213V26.25C188.213 25.8167 188.04 25.47 187.693 25.21C187.347 24.8633 186.957 24.69 186.523 24.69H130.623C130.19 24.69 129.8 24.8633 129.453 25.21C129.193 25.47 129.063 25.8167 129.063 26.25V52.38ZM279.855 101V24.69H241.635V7.4H335.235V24.69H297.145V101H279.855ZM504.614 101V7.4H523.464L557.394 47.83L591.194 7.4H610.174V101H592.884V32.36L557.394 74.61L521.774 32.49V101H504.614ZM649.399 101V7.4H666.429V101H649.399ZM723.092 101C719.799 101 716.766 100.177 713.992 98.53C711.306 96.8833 709.139 94.7167 707.492 92.03C705.846 89.2567 705.022 86.2233 705.022 82.93V25.47C705.022 22.1767 705.846 19.1867 707.492 16.5C709.139 13.7267 711.306 11.5167 713.992 9.87C716.766 8.22333 719.799 7.4 723.092 7.4H798.362V24.69H726.732C725.346 24.69 724.219 25.08 723.352 25.86C722.572 26.64 722.182 27.7667 722.182 29.24V79.16C722.182 80.5467 722.572 81.6733 723.352 82.54C724.219 83.32 725.346 83.71 726.732 83.71H798.362V101H723.092Z" fill="white"/>
<path d="M337.77 184.812V133.712H356.896C361.227 133.712 364.95 134.418 368.065 135.829C371.18 137.192 373.564 139.187 375.219 141.815C376.922 144.395 377.774 147.534 377.774 151.232C377.774 154.834 376.922 157.948 375.219 160.576C373.564 163.156 371.18 165.151 368.065 166.562C364.95 167.974 361.227 168.679 356.896 168.679H340.763L343.172 166.124V184.812H337.77ZM343.172 166.562L340.763 163.934H356.75C361.86 163.934 365.729 162.839 368.357 160.649C371.034 158.411 372.372 155.272 372.372 151.232C372.372 147.144 371.034 143.981 368.357 141.742C365.729 139.504 361.86 138.384 356.75 138.384H340.763L343.172 135.829V166.562ZM421.288 185.177C417.589 185.177 414.255 184.35 411.287 182.695C408.367 180.992 406.055 178.68 404.352 175.76C402.648 172.792 401.797 169.409 401.797 165.613C401.797 161.769 402.648 158.386 404.352 155.466C406.055 152.546 408.367 150.259 411.287 148.604C414.207 146.95 417.54 146.122 421.288 146.122C425.084 146.122 428.442 146.95 431.362 148.604C434.33 150.259 436.642 152.546 438.297 155.466C440 158.386 440.852 161.769 440.852 165.613C440.852 169.409 440 172.792 438.297 175.76C436.642 178.68 434.33 180.992 431.362 182.695C428.393 184.35 425.035 185.177 421.288 185.177ZM421.288 180.578C424.062 180.578 426.519 179.97 428.661 178.753C430.802 177.488 432.481 175.736 433.698 173.497C434.963 171.21 435.596 168.582 435.596 165.613C435.596 162.596 434.963 159.968 433.698 157.729C432.481 155.491 430.802 153.763 428.661 152.546C426.519 151.281 424.086 150.648 421.361 150.648C418.635 150.648 416.202 151.281 414.061 152.546C411.919 153.763 410.216 155.491 408.951 157.729C407.685 159.968 407.053 162.596 407.053 165.613C407.053 168.582 407.685 171.21 408.951 173.497C410.216 175.736 411.919 177.488 414.061 178.753C416.202 179.97 418.611 180.578 421.288 180.578ZM488.517 146.122C491.632 146.122 494.357 146.731 496.693 147.947C499.078 149.115 500.927 150.916 502.241 153.349C503.604 155.783 504.285 158.849 504.285 162.547V184.812H499.102V163.058C499.102 159.019 498.08 155.977 496.036 153.933C494.041 151.841 491.218 150.794 487.568 150.794C484.843 150.794 482.458 151.354 480.414 152.473C478.419 153.544 476.862 155.126 475.742 157.218C474.672 159.262 474.136 161.744 474.136 164.664V184.812H468.953V146.487H473.917V156.999L473.114 155.028C474.331 152.254 476.278 150.089 478.954 148.531C481.631 146.925 484.819 146.122 488.517 146.122ZM552.157 199.339C548.653 199.339 545.295 198.828 542.083 197.806C538.871 196.784 536.268 195.324 534.272 193.426L536.9 189.484C538.701 191.09 540.915 192.356 543.543 193.28C546.22 194.254 549.043 194.74 552.011 194.74C556.878 194.74 560.455 193.597 562.742 191.309C565.03 189.071 566.173 185.567 566.173 180.797V171.234L566.903 164.664L566.392 158.094V146.487H571.356V180.14C571.356 186.759 569.726 191.601 566.465 194.667C563.253 197.782 558.484 199.339 552.157 199.339ZM551.208 183.352C547.558 183.352 544.273 182.574 541.353 181.016C538.433 179.41 536.122 177.196 534.418 174.373C532.764 171.551 531.936 168.314 531.936 164.664C531.936 161.014 532.764 157.802 534.418 155.028C536.122 152.206 538.433 150.016 541.353 148.458C544.273 146.901 547.558 146.122 551.208 146.122C554.615 146.122 557.681 146.828 560.406 148.239C563.132 149.651 565.297 151.743 566.903 154.517C568.509 157.291 569.312 160.674 569.312 164.664C569.312 168.655 568.509 172.037 566.903 174.811C565.297 177.585 563.132 179.702 560.406 181.162C557.681 182.622 554.615 183.352 551.208 183.352ZM551.719 178.753C554.542 178.753 557.048 178.169 559.238 177.001C561.428 175.785 563.156 174.13 564.421 172.037C565.687 169.896 566.319 167.438 566.319 164.664C566.319 161.89 565.687 159.457 564.421 157.364C563.156 155.272 561.428 153.641 559.238 152.473C557.048 151.257 554.542 150.648 551.719 150.648C548.945 150.648 546.439 151.257 544.2 152.473C542.01 153.641 540.283 155.272 539.017 157.364C537.801 159.457 537.192 161.89 537.192 164.664C537.192 167.438 537.801 169.896 539.017 172.037C540.283 174.13 542.01 175.785 544.2 177.001C546.439 178.169 548.945 178.753 551.719 178.753Z" fill="white"/>
</svg>
